<svg width="92" height="107" viewBox="0 0 92 107" fill="none" xmlns="http://www.w3.org/2000/svg">
<path d="M85.1121 106.743H18.9005C16.3436 106.743 14.2776 104.667 14.2776 102.12V8.87515C14.2776 6.31822 16.3528 4.25229 18.9005 4.25229H85.1121C88.651 4.25229 91.523 6.2719 91.523 10.6632V100.35C91.5137 103.88 88.651 106.743 85.1121 106.743Z" fill="#5B4497"/>
<path d="M16.5288 101.397C18.113 103.259 19.9473 104 21.7446 104L83.8336 103.954C86.5943 103.954 87.9654 102.694 87.9654 100.795L87.8079 80.9417H10.0346L9.4046 93.8746C9.4046 93.8654 14.9446 99.5351 16.5288 101.397Z" fill="#C9C5CA"/>
<path d="M81.5546 92.1052C81.5546 92.1052 79.5813 97.5247 81.5824 100.239C83.9077 103.389 87.9654 102.629 87.9654 101.156V9.24572C87.9654 8.63428 87.4003 8.1896 86.8074 8.3193C85.5197 8.59723 83.2036 8.60649 80.1279 6.56836L81.5546 92.1052Z" fill="#E6E1E5"/>
<path d="M74.7917 96.7095H11.6929C5.3006 96.7095 6.58833 89.9558 6.58833 89.9558L9.29349 5.69751C9.38613 2.51988 11.9801 0 15.1578 0H76.3944C78.4974 0 79.9797 0.565119 80.6745 1.50081C81.5824 2.71442 82.0642 4.55801 82.0642 6.57762V89.0016C82.0549 94.6713 78.8031 96.7095 74.7917 96.7095Z" fill="#5B4497"/>
<path d="M72.7906 93.8654H11.2112C8.65424 93.8654 6.58832 91.7902 6.58832 89.2425V4.62286C6.58832 2.06593 8.66351 1.90735e-06 11.2112 1.90735e-06H72.7906C76.3296 1.90735e-06 79.2015 2.01961 79.2015 6.41086V87.4638C79.1922 90.9934 76.3296 93.8654 72.7906 93.8654Z" fill="#6750A4"/>
<path d="M16.0563 12.6457L17.3348 8.87516C13.3512 7.41141 8.21876 8.22666 6.58826 9.44954V13.7018C7.96863 13.0811 10.9517 11.8953 16.0563 12.6457Z" fill="#5B4497"/>
<path d="M17.3348 12.7939C19.4786 12.7939 21.2165 11.056 21.2165 8.91221C21.2165 6.7684 19.4786 5.03049 17.3348 5.03049C15.191 5.03049 13.4531 6.7684 13.4531 8.91221C13.4531 11.056 15.191 12.7939 17.3348 12.7939Z" fill="#4F378B"/>
<path d="M3.97576 14.6005C3.97576 11.9046 7.76484 9.62556 12.2395 9.62556C13.6106 9.62556 14.9076 9.83864 16.0563 10.2092C17.1217 10.552 18.2612 10.0147 18.604 8.94927L18.6133 8.91221C18.9468 7.87462 18.3724 6.77217 17.3348 6.42939C15.7877 5.91986 14.0645 5.64193 12.2395 5.64193C5.37466 5.64193 -0.100507 9.56997 0.00139977 14.5912C0.112571 19.6309 3.02154 22.4195 6.58828 24.0037V18.7138C4.04061 17.2686 3.97576 15.5361 3.97576 14.6005Z" fill="#625B71"/>
<path d="M4.14252 13.6092C3.64225 14.0261 2.50275 17.074 3.08639 19.4364C3.38285 20.65 4.07767 22.6048 6.57902 24.0222V18.5192C3.60519 16.4441 4.0962 13.7852 4.14252 13.6092Z" fill="#564F65"/>
<path d="M16.0563 27.626L17.3348 23.8554C13.3512 22.3917 8.21876 23.2069 6.58826 24.4298V28.6821C7.96863 28.0614 10.9517 26.8756 16.0563 27.626Z" fill="#5B4497"/>
<path d="M17.3348 27.9039C19.4786 27.9039 21.2165 26.166 21.2165 24.0222C21.2165 21.8784 19.4786 20.1405 17.3348 20.1405C15.191 20.1405 13.4531 21.8784 13.4531 24.0222C13.4531 26.166 15.191 27.9039 17.3348 27.9039Z" fill="#4F378B"/>
<path d="M3.97576 29.5807C3.97576 26.8849 7.76484 24.6058 12.2395 24.6058C13.6106 24.6058 14.9076 24.8189 16.0563 25.1895C17.1217 25.5323 18.2612 24.9949 18.604 23.9296L18.6133 23.8925C18.9468 22.8549 18.3724 21.7525 17.3348 21.4097C15.7877 20.9001 14.0645 20.6222 12.2395 20.6222C5.37466 20.6222 -0.100507 24.5503 0.00139977 29.5715C0.112571 34.6112 3.02154 37.3998 6.58828 38.984V33.6941C4.04061 32.2489 3.97576 30.5164 3.97576 29.5807Z" fill="#625B71"/>
<path d="M4.06839 28.8396C3.56812 29.2565 2.50273 32.323 3.08638 34.6761C3.38283 35.8897 4.07765 37.5851 6.579 38.9932V33.7589C3.60517 31.6837 4.02206 29.0156 4.06839 28.8396Z" fill="#564F65"/>
<path d="M16.0563 43.051L17.3348 39.2804C13.3512 37.8167 8.21876 38.6319 6.58826 39.8548V44.1071C7.96863 43.4864 10.9517 42.3006 16.0563 43.051Z" fill="#5B4497"/>
<path d="M17.3348 43.0139C19.4786 43.0139 21.2165 41.276 21.2165 39.1322C21.2165 36.9884 19.4786 35.2505 17.3348 35.2505C15.191 35.2505 13.4531 36.9884 13.4531 39.1322C13.4531 41.276 15.191 43.0139 17.3348 43.0139Z" fill="#4F378B"/>
<path d="M3.97576 45.0057C3.97576 42.3098 7.76484 40.0308 12.2395 40.0308C13.6106 40.0308 14.9076 40.2439 16.0563 40.6145C17.1217 40.9572 18.2612 40.4199 18.604 39.3545L18.6133 39.3175C18.9468 38.2799 18.3724 37.1774 17.3348 36.8347C15.7877 36.3251 14.0645 36.0472 12.2395 36.0472C5.37466 36.0472 -0.100507 39.9752 0.00139977 44.9965C0.112571 50.0362 3.02154 52.8247 6.58828 54.4089V49.119C4.04061 47.6738 3.97576 45.9414 3.97576 45.0057Z" fill="#625B71"/>
<path d="M4.11473 43.9959C3.61446 44.4128 2.51202 47.4793 3.09567 49.8324C3.39212 51.046 4.08694 53.0008 6.58829 54.4182V48.9245C3.6052 46.8493 4.05915 44.1719 4.11473 43.9959Z" fill="#564F65"/>
<path d="M16.0563 57.9294L17.3348 54.1588C13.3512 52.6951 8.21876 53.5103 6.58826 54.7332V58.9855C7.96863 58.3555 10.9517 57.179 16.0563 57.9294Z" fill="#5B4497"/>
<path d="M17.3348 58.1239C19.4786 58.1239 21.2165 56.386 21.2165 54.2422C21.2165 52.0984 19.4786 50.3605 17.3348 50.3605C15.191 50.3605 13.4531 52.0984 13.4531 54.2422C13.4531 56.386 15.191 58.1239 17.3348 58.1239Z" fill="#4F378B"/>
<path d="M3.97576 60.2269C3.97576 57.531 7.76484 55.252 12.2395 55.252C13.6106 55.252 14.9076 55.4651 16.0563 55.8356C17.1217 56.1784 18.2612 55.6411 18.604 54.5757L18.6133 54.5387C18.9468 53.5011 18.3724 52.3986 17.3348 52.0558C15.7877 51.5463 14.0645 51.2684 12.2395 51.2684C5.37466 51.2684 -0.100507 55.1964 0.00139977 60.2176C0.112571 65.2574 3.02154 68.0459 6.58828 69.6301V64.3402C4.04061 62.8857 3.97576 61.1626 3.97576 60.2269Z" fill="#625B71"/>
<path d="M4.11473 59.2171C3.61446 59.634 2.51202 62.7005 3.09567 65.0536C3.39212 66.2672 4.08694 68.2219 6.58829 69.6394V64.1364C3.6052 62.0612 4.05915 59.3931 4.11473 59.2171Z" fill="#564F65"/>
<path d="M16.0563 73.1042L17.3348 69.3336C13.3512 67.8699 8.21876 68.6851 6.58826 69.908V74.1603C7.96863 73.5303 10.9517 72.3445 16.0563 73.1042Z" fill="#5B4497"/>
<path d="M17.3348 73.2432C19.4786 73.2432 21.2165 71.5053 21.2165 69.3614C21.2165 67.2176 19.4786 65.4797 17.3348 65.4797C15.191 65.4797 13.4531 67.2176 13.4531 69.3614C13.4531 71.5053 15.191 73.2432 17.3348 73.2432Z" fill="#4F378B"/>
<path d="M3.97576 75.0497C3.97576 72.3538 7.76484 70.0748 12.2395 70.0748C13.6106 70.0748 14.9076 70.2879 16.0563 70.6584C17.1217 71.0012 18.2612 70.4639 18.604 69.3985L18.6133 69.3614C18.9468 68.3238 18.3724 67.2214 17.3348 66.8786C15.7877 66.3691 14.0645 66.0912 12.2395 66.0912C5.37466 66.0912 -0.100507 70.0192 0.00139977 75.0404C0.112571 80.0802 3.02154 82.8687 6.58828 84.4529V79.163C4.04061 77.7178 3.97576 75.9854 3.97576 75.0497Z" fill="#625B71"/>
<path d="M4.11473 74.0491C3.61446 74.466 2.51202 77.5325 3.09567 79.8856C3.39212 81.0992 4.08694 83.054 6.58829 84.4714V78.9685C3.6052 76.8933 4.06841 74.2252 4.11473 74.0491Z" fill="#564F65"/>
<path d="M16.0563 87.9362L17.3348 84.1657C13.3512 82.7019 8.21876 83.5172 6.58826 84.7401V88.9924C7.96863 88.3624 10.9517 87.1766 16.0563 87.9362Z" fill="#5B4497"/>
<path d="M17.3348 88.3531C19.4786 88.3531 21.2165 86.6152 21.2165 84.4714C21.2165 82.3276 19.4786 80.5897 17.3348 80.5897C15.191 80.5897 13.4531 82.3276 13.4531 84.4714C13.4531 86.6152 15.191 88.3531 17.3348 88.3531Z" fill="#4F378B"/>
<path d="M12.1561 96.7095H11.6929C9.29344 96.7095 7.98719 95.7553 7.27384 94.5602C3.95724 92.8741 3.97577 90.521 3.97577 89.8817C3.97577 87.1858 7.76484 84.9068 12.2395 84.9068C13.6106 84.9068 14.9076 85.1199 16.0563 85.4905C17.1217 85.8333 18.2612 85.2959 18.604 84.2305L18.6133 84.1935C18.9468 83.1559 18.3724 82.0534 17.3348 81.7107C15.7877 81.2011 14.0645 80.9232 12.2395 80.9232C5.37467 80.9232 0.00140381 84.8513 0.00140381 89.8725C0.00140381 95.922 2.24335 98.9422 14.2776 100.925V98.9144C13.5828 98.201 12.8509 97.4321 12.1561 96.7095Z" fill="#625B71"/>
<path d="M12.1561 96.7095H11.6929C9.29344 96.7095 7.98719 95.7553 7.27384 94.5602C3.95724 92.8741 3.97577 90.521 3.97577 89.8817C3.97577 87.1858 7.76484 84.9068 12.2395 84.9068C13.6106 84.9068 14.9076 85.1199 16.0563 85.4905C17.1217 85.8333 18.2612 85.2959 18.604 84.2305L18.6133 84.1935C18.9468 83.1559 18.3724 82.0534 17.3348 81.7107C15.7877 81.2011 14.0645 80.9232 12.2395 80.9232C5.37467 80.9232 0.00140381 84.8513 0.00140381 89.8725C0.00140381 95.922 2.22482 99.1645 14.2776 100.925V98.9144C13.5828 98.201 12.8509 97.4321 12.1561 96.7095Z" fill="#625B71"/>
<path d="M12.156 96.7095H11.6928C9.29339 96.7095 7.98713 95.7553 7.27378 94.5602C3.95718 92.8741 3.97571 90.521 3.97571 89.8817C3.97571 89.5482 4.0313 89.2147 4.14247 88.8905C4.1332 88.8812 4.11467 88.8719 4.11467 88.8719C3.6144 89.2888 2.51196 92.3553 3.09561 94.7084C3.30869 95.5793 3.50323 97.2746 6.49559 99.0441C8.46887 99.776 11.0165 100.387 14.2776 100.925V98.9236C13.5827 98.201 12.8509 97.4321 12.156 96.7095Z" fill="#564F65"/>
</svg>
