<?xml version="1.0" standalone="no"?>
<!DOCTYPE svg PUBLIC "-//W3C//DTD SVG 20010904//EN"
 "http://www.w3.org/TR/2001/REC-SVG-20010904/DTD/svg10.dtd">
<svg version="1.0" xmlns="http://www.w3.org/2000/svg"
 width="856.000000pt" height="856.000000pt" viewBox="0 0 856.000000 856.000000"
 preserveAspectRatio="xMidYMid meet">
<metadata>
Created by potrace 1.14, written by Peter Selinger 2001-2017
</metadata>
<g transform="translate(0.000000,856.000000) scale(0.100000,-0.100000)"
fill="#000000" stroke="none">
<path d="M1385 8540 c-111 -36 -207 -133 -240 -243 -9 -31 -15 -91 -15 -157
l0 -107 -70 -31 c-268 -118 -436 -326 -457 -563 -12 -136 34 -326 108 -451 39
-67 134 -172 197 -219 l33 -25 -48 -34 c-129 -92 -226 -218 -266 -344 -28 -91
-30 -245 -3 -359 37 -162 148 -333 279 -431 l66 -50 -65 -44 c-176 -118 -286
-290 -301 -473 -11 -133 34 -330 104 -448 44 -74 143 -184 202 -225 23 -16 41
-31 41 -35 0 -3 -19 -18 -43 -33 -124 -79 -239 -223 -279 -351 -31 -97 -30
-265 1 -381 41 -156 136 -305 249 -392 28 -21 51 -41 51 -44 0 -3 -22 -20 -50
-39 -128 -87 -242 -256 -270 -399 -25 -133 4 -308 78 -462 40 -82 58 -107 143
-192 l98 -98 -48 -35 c-128 -94 -232 -243 -265 -380 -28 -118 -13 -328 34
-460 72 -205 265 -349 596 -445 103 -30 350 -83 443 -95 l52 -7 0 -58 c0 -74
17 -153 42 -204 33 -65 112 -141 181 -172 l62 -29 2745 0 2745 0 59 23 c82 31
144 72 208 140 63 66 99 131 122 219 15 56 16 414 14 3750 l-3 3688 -21 56
c-45 116 -96 183 -182 238 -95 60 -158 73 -371 80 l-194 6 -21 65 c-44 137
-105 205 -216 243 l-65 22 -2700 2 c-2643 2 -2701 2 -2760 -17z m5890 -630
c71 -21 165 -28 264 -20 48 4 55 2 77 -23 l24 -28 0 -3693 0 -3693 -30 -59
c-35 -68 -79 -104 -160 -128 -50 -15 -274 -17 -2585 -23 -2005 -5 -2545 -3
-2603 7 -119 20 -211 72 -312 177 -160 166 -360 381 -360 387 0 3 1155 7 2568
8 l2567 3 77 26 c185 63 282 171 342 379 l21 75 3 3319 c2 3142 3 3318 20
3313 9 -4 49 -15 87 -27z m-6145 -535 c0 -338 7 -321 -88 -221 -67 70 -105
151 -110 233 -5 78 -1 97 39 156 31 48 123 127 147 127 9 0 12 -66 12 -295z
m0 -1206 c0 -204 -3 -299 -11 -299 -25 0 -121 107 -153 171 -60 120 -58 213 6
307 32 46 136 134 150 126 4 -3 8 -140 8 -305z m0 -1224 c0 -166 -4 -295 -9
-295 -20 0 -125 118 -151 169 -33 67 -54 158 -44 197 9 39 39 94 68 126 29 32
114 98 127 98 5 0 9 -121 9 -295z m0 -1220 c0 -337 6 -321 -87 -223 -62 66
-98 134 -112 215 -13 71 -2 117 45 185 30 42 120 118 142 118 9 0 12 -66 12
-295z m0 -1180 c0 -205 -3 -295 -11 -295 -22 0 -126 117 -152 171 -50 102 -53
199 -9 271 30 48 140 148 163 148 5 0 9 -133 9 -295z m-2 -1157 c-3 -253 -2
-265 19 -317 13 -30 21 -57 18 -59 -9 -9 -104 60 -145 104 -23 25 -54 71 -68
102 -23 48 -27 71 -27 142 0 95 11 123 73 192 38 43 108 98 124 98 5 0 8 -110
6 -262z"/>
</g>
</svg>
