<svg width="640" height="142" viewBox="0 0 640 142" fill="none" xmlns="http://www.w3.org/2000/svg">
<path d="M129.584 107H117.488V59.384H129.584V66.488H131.312C132.4 63.8 134.16 61.72 136.592 60.248C139.024 58.776 141.872 58.04 145.136 58.04C147.44 58.04 149.584 58.424 151.568 59.192C153.616 59.896 155.408 61.016 156.944 62.552C158.48 64.088 159.664 66.04 160.496 68.408C161.392 70.776 161.84 73.592 161.84 76.856V107H149.744V79.928C149.744 76.536 148.912 73.88 147.248 71.96C145.648 69.976 143.312 68.984 140.24 68.984C136.656 68.984 133.968 70.2 132.176 72.632C130.448 75 129.584 78.2 129.584 82.232V107ZM186.349 107H174.253V39.8H186.349V66.296H188.077C189.357 63.672 191.213 61.656 193.645 60.248C196.077 58.776 199.181 58.04 202.957 58.04C205.773 58.04 208.429 58.584 210.925 59.672C213.485 60.76 215.693 62.36 217.549 64.472C219.469 66.52 220.973 69.048 222.061 72.056C223.213 75.064 223.789 78.488 223.789 82.328V84.056C223.789 87.96 223.245 91.416 222.157 94.424C221.069 97.432 219.597 99.992 217.741 102.104C215.885 104.152 213.677 105.72 211.117 106.808C208.621 107.832 205.901 108.344 202.957 108.344C200.781 108.344 198.893 108.12 197.293 107.672C195.693 107.224 194.285 106.616 193.069 105.848C191.917 105.08 190.925 104.216 190.093 103.256C189.325 102.232 188.653 101.176 188.077 100.088H186.349V107ZM199.021 96.824C202.797 96.824 205.837 95.672 208.141 93.368C210.509 91 211.693 87.8 211.693 83.768V82.616C211.693 78.584 210.509 75.416 208.141 73.112C205.837 70.744 202.797 69.56 199.021 69.56C195.245 69.56 192.173 70.776 189.805 73.208C187.501 75.576 186.349 78.712 186.349 82.616V83.768C186.349 87.672 187.501 90.84 189.805 93.272C192.173 95.64 195.245 96.824 199.021 96.824ZM244.651 126.2H232.555V59.384H244.651V66.296H246.379C247.659 63.672 249.515 61.656 251.947 60.248C254.379 58.776 257.483 58.04 261.259 58.04C264.075 58.04 266.731 58.584 269.227 59.672C271.787 60.76 273.995 62.36 275.851 64.472C277.771 66.52 279.275 69.048 280.363 72.056C281.515 75.064 282.091 78.488 282.091 82.328V84.056C282.091 87.96 281.547 91.416 280.458 94.424C279.371 97.432 277.899 99.992 276.042 102.104C274.187 104.152 271.979 105.72 269.419 106.808C266.923 107.832 264.203 108.344 261.259 108.344C259.083 108.344 257.195 108.12 255.595 107.672C253.995 107.224 252.587 106.616 251.371 105.848C250.219 105.08 249.227 104.216 248.395 103.256C247.627 102.232 246.955 101.176 246.379 100.088H244.651V126.2ZM257.323 96.824C261.099 96.824 264.139 95.672 266.443 93.368C268.811 91 269.995 87.8 269.995 83.768V82.616C269.995 78.584 268.811 75.416 266.443 73.112C264.139 70.744 261.099 69.56 257.323 69.56C253.547 69.56 250.475 70.776 248.107 73.208C245.803 75.576 244.651 78.712 244.651 82.616V83.768C244.651 87.672 245.803 90.84 248.107 93.272C250.475 95.64 253.547 96.824 257.323 96.824ZM291.528 59.384H311.688V66.296H313.416C314.312 63.672 315.816 61.656 317.928 60.248C320.104 58.776 322.696 58.04 325.704 58.04C330.44 58.04 334.248 59.544 337.128 62.552C340.008 65.496 341.448 70.008 341.448 76.088V78.2L328.968 79.352V78.008C328.968 75.384 328.296 73.304 326.952 71.768C325.608 70.168 323.592 69.368 320.904 69.368C318.216 69.368 316.104 70.296 314.568 72.152C313.032 74.008 312.264 76.664 312.264 80.12V95.48H323.208V107H290.376V95.48H300.168V70.904H291.528V59.384ZM363.269 87.128C363.333 88.536 363.653 89.848 364.229 91.064C364.869 92.216 365.701 93.24 366.725 94.136C367.813 94.968 369.029 95.64 370.373 96.152C371.781 96.6 373.253 96.824 374.789 96.824C377.797 96.824 380.101 96.312 381.701 95.288C383.301 94.2 384.453 92.92 385.157 91.448L395.525 97.208C394.949 98.424 394.149 99.704 393.125 101.048C392.101 102.328 390.757 103.512 389.093 104.6C387.493 105.688 385.509 106.584 383.141 107.288C380.837 107.992 378.117 108.344 374.981 108.344C371.397 108.344 368.133 107.768 365.189 106.616C362.245 105.464 359.685 103.8 357.509 101.624C355.397 99.448 353.733 96.792 352.517 93.656C351.365 90.52 350.789 86.968 350.789 83V82.424C350.789 78.776 351.397 75.448 352.613 72.44C353.893 69.432 355.621 66.872 357.797 64.76C359.973 62.648 362.501 61.016 365.381 59.864C368.325 58.648 371.461 58.04 374.789 58.04C378.885 58.04 382.405 58.776 385.349 60.248C388.293 61.656 390.725 63.48 392.645 65.72C394.565 67.896 395.973 70.328 396.869 73.016C397.765 75.64 398.213 78.2 398.213 80.696V87.128H363.269ZM374.693 68.984C371.621 68.984 369.125 69.784 367.205 71.384C365.285 72.92 364.037 74.712 363.461 76.76H385.925C385.541 74.52 384.325 72.664 382.277 71.192C380.293 69.72 377.765 68.984 374.693 68.984ZM408.034 59.384H421.09L432.322 101.24H434.05L445.282 59.384H458.338L444.706 107H421.666L408.034 59.384ZM471.04 95.48H487.168V70.904H472.192V59.384H499.264V95.48H513.088V107H471.04V95.48ZM502.24 45.272C502.24 46.552 501.984 47.768 501.472 48.92C501.024 50.008 500.384 50.968 499.552 51.8C498.72 52.568 497.728 53.208 496.576 53.72C495.488 54.168 494.336 54.392 493.12 54.392C491.84 54.392 490.656 54.168 489.568 53.72C488.48 53.208 487.52 52.568 486.688 51.8C485.856 50.968 485.184 50.008 484.672 48.92C484.224 47.768 484 46.552 484 45.272C484 43.992 484.224 42.808 484.672 41.72C485.184 40.568 485.856 39.608 486.688 38.84C487.52 38.008 488.48 37.368 489.568 36.92C490.656 36.408 491.84 36.152 493.12 36.152C494.336 36.152 495.488 36.408 496.576 36.92C497.728 37.368 498.72 38.008 499.552 38.84C500.384 39.608 501.024 40.568 501.472 41.72C501.984 42.808 502.24 43.992 502.24 45.272ZM539.613 87.128C539.677 88.536 539.997 89.848 540.573 91.064C541.213 92.216 542.045 93.24 543.069 94.136C544.157 94.968 545.373 95.64 546.717 96.152C548.125 96.6 549.597 96.824 551.133 96.824C554.141 96.824 556.445 96.312 558.045 95.288C559.645 94.2 560.797 92.92 561.501 91.448L571.869 97.208C571.293 98.424 570.493 99.704 569.469 101.048C568.445 102.328 567.101 103.512 565.437 104.6C563.837 105.688 561.853 106.584 559.485 107.288C557.181 107.992 554.461 108.344 551.325 108.344C547.741 108.344 544.477 107.768 541.533 106.616C538.589 105.464 536.029 103.8 533.853 101.624C531.741 99.448 530.077 96.792 528.861 93.656C527.709 90.52 527.133 86.968 527.133 83V82.424C527.133 78.776 527.741 75.448 528.957 72.44C530.237 69.432 531.965 66.872 534.141 64.76C536.317 62.648 538.845 61.016 541.725 59.864C544.669 58.648 547.805 58.04 551.133 58.04C555.229 58.04 558.749 58.776 561.693 60.248C564.637 61.656 567.069 63.48 568.989 65.72C570.909 67.896 572.317 70.328 573.213 73.016C574.109 75.64 574.557 78.2 574.557 80.696V87.128H539.613ZM551.037 68.984C547.965 68.984 545.469 69.784 543.549 71.384C541.629 72.92 540.381 74.712 539.805 76.76H562.269C561.885 74.52 560.669 72.664 558.621 71.192C556.637 69.72 554.109 68.984 551.037 68.984ZM634.394 107H613.466L610.778 70.904V65.144H608.474V70.904L605.786 107H584.858L581.69 59.384H592.826L594.938 95.48V101.24H597.242V95.48L599.642 59.384H619.61L622.01 95.48V101.24H624.314V95.48L626.426 59.384H637.562L634.394 107Z" fill="#CCC2DC"/>
<path d="M85.1121 106.743H18.9005C16.3436 106.743 14.2776 104.667 14.2776 102.12V8.87515C14.2776 6.31822 16.3528 4.25229 18.9005 4.25229H85.1121C88.651 4.25229 91.523 6.2719 91.523 10.6631V100.35C91.5137 103.88 88.651 106.743 85.1121 106.743Z" fill="#B69DF8"/>
<path d="M16.5288 101.397C18.113 103.259 19.9473 104 21.7446 104L83.8336 103.954C86.5943 103.954 87.9654 102.694 87.9654 100.795L87.8079 80.9417H10.0346L9.4046 93.8746C9.4046 93.8654 14.9446 99.5351 16.5288 101.397Z" fill="#E6E1E5"/>
<path d="M81.5546 92.1052C81.5546 92.1052 79.5813 97.5247 81.5824 100.239C83.9077 103.389 87.9654 102.629 87.9654 101.156V9.24573C87.9654 8.63429 87.4003 8.1896 86.8074 8.3193C85.5197 8.59723 83.2036 8.60649 80.1279 6.56836L81.5546 92.1052Z" fill="#F4EFF4"/>
<path d="M74.7917 96.7095H11.6929C5.3006 96.7095 6.58833 89.9558 6.58833 89.9558L9.29349 5.69751C9.38613 2.51988 11.9801 0 15.1578 0H76.3944C78.4974 0 79.9797 0.565119 80.6745 1.50081C81.5824 2.71442 82.0642 4.55801 82.0642 6.57762V89.0016C82.0549 94.6713 78.8031 96.7095 74.7917 96.7095Z" fill="#B69DF8"/>
<path d="M72.7906 93.8654H11.2112C8.65424 93.8654 6.58832 91.7902 6.58832 89.2425V4.62286C6.58832 2.06593 8.66351 0 11.2112 0H72.7906C76.3296 0 79.2015 2.01961 79.2015 6.41086V87.4638C79.1922 90.9934 76.3296 93.8654 72.7906 93.8654Z" fill="#D0BCFF"/>
<path d="M16.0563 12.6457L17.3348 8.87515C13.3512 7.4114 8.21876 8.22665 6.58826 9.44953V13.7018C7.96863 13.0811 10.9517 11.8953 16.0563 12.6457Z" fill="#B69DF8"/>
<path d="M17.3348 12.7939C19.4786 12.7939 21.2165 11.056 21.2165 8.91221C21.2165 6.76839 19.4786 5.03049 17.3348 5.03049C15.191 5.03049 13.4531 6.76839 13.4531 8.91221C13.4531 11.056 15.191 12.7939 17.3348 12.7939Z" fill="#9A82DB"/>
<path d="M3.97576 14.6005C3.97576 11.9046 7.76484 9.62556 12.2395 9.62556C13.6106 9.62556 14.9076 9.83864 16.0563 10.2092C17.1217 10.552 18.2612 10.0147 18.604 8.94927L18.6133 8.91222C18.9468 7.87462 18.3724 6.77218 17.3348 6.4294C15.7877 5.91987 14.0645 5.64194 12.2395 5.64194C5.37466 5.64194 -0.100507 9.56998 0.00139977 14.5912C0.112571 19.631 3.02154 22.4195 6.58828 24.0037V18.7138C4.04061 17.2686 3.97576 15.5362 3.97576 14.6005Z" fill="#CCC2DC"/>
<path d="M4.14252 13.6092C3.64225 14.0261 2.50275 17.074 3.08639 19.4364C3.38285 20.65 4.07767 22.6048 6.57902 24.0222V18.5192C3.60519 16.4441 4.0962 13.7852 4.14252 13.6092Z" fill="#B0A7C0"/>
<path d="M16.0563 27.626L17.3348 23.8554C13.3512 22.3917 8.21876 23.2069 6.58826 24.4298V28.6821C7.96863 28.0614 10.9517 26.8756 16.0563 27.626Z" fill="#B69DF8"/>
<path d="M17.3348 27.9039C19.4786 27.9039 21.2165 26.166 21.2165 24.0222C21.2165 21.8784 19.4786 20.1405 17.3348 20.1405C15.191 20.1405 13.4531 21.8784 13.4531 24.0222C13.4531 26.166 15.191 27.9039 17.3348 27.9039Z" fill="#9A82DB"/>
<path d="M3.97576 29.5807C3.97576 26.8848 7.76484 24.6058 12.2395 24.6058C13.6106 24.6058 14.9076 24.8189 16.0563 25.1895C17.1217 25.5323 18.2612 24.9949 18.604 23.9295L18.6133 23.8925C18.9468 22.8549 18.3724 21.7524 17.3348 21.4097C15.7877 20.9001 14.0645 20.6222 12.2395 20.6222C5.37466 20.6222 -0.100507 24.5503 0.00139977 29.5715C0.112571 34.6112 3.02154 37.3998 6.58828 38.984V33.6941C4.04061 32.2488 3.97576 30.5164 3.97576 29.5807Z" fill="#CCC2DC"/>
<path d="M4.06839 28.8396C3.56812 29.2565 2.50273 32.323 3.08638 34.6761C3.38283 35.8897 4.07765 37.585 6.579 38.9932V33.7589C3.60517 31.6837 4.02206 29.0156 4.06839 28.8396Z" fill="#B0A7C0"/>
<path d="M16.0563 43.051L17.3348 39.2804C13.3512 37.8167 8.21876 38.6319 6.58826 39.8548V44.1071C7.96863 43.4864 10.9517 42.3006 16.0563 43.051Z" fill="#B69DF8"/>
<path d="M17.3348 43.0139C19.4786 43.0139 21.2165 41.276 21.2165 39.1322C21.2165 36.9884 19.4786 35.2505 17.3348 35.2505C15.191 35.2505 13.4531 36.9884 13.4531 39.1322C13.4531 41.276 15.191 43.0139 17.3348 43.0139Z" fill="#9A82DB"/>
<path d="M3.97576 45.0057C3.97576 42.3098 7.76484 40.0308 12.2395 40.0308C13.6106 40.0308 14.9076 40.2439 16.0563 40.6145C17.1217 40.9572 18.2612 40.4199 18.604 39.3545L18.6133 39.3175C18.9468 38.2799 18.3724 37.1774 17.3348 36.8347C15.7877 36.3251 14.0645 36.0472 12.2395 36.0472C5.37466 36.0472 -0.100507 39.9752 0.00139977 44.9965C0.112571 50.0362 3.02154 52.8248 6.58828 54.4089V49.1191C4.04061 47.6738 3.97576 45.9414 3.97576 45.0057Z" fill="#CCC2DC"/>
<path d="M4.11473 43.9959C3.61446 44.4128 2.51202 47.4793 3.09567 49.8324C3.39212 51.046 4.08694 53.0008 6.58829 54.4182V48.9245C3.6052 46.8493 4.05915 44.1719 4.11473 43.9959Z" fill="#B0A7C0"/>
<path d="M16.0563 57.9294L17.3348 54.1588C13.3512 52.6951 8.21876 53.5103 6.58826 54.7332V58.9855C7.96863 58.3555 10.9517 57.179 16.0563 57.9294Z" fill="#B69DF8"/>
<path d="M17.3348 58.1239C19.4786 58.1239 21.2165 56.386 21.2165 54.2422C21.2165 52.0984 19.4786 50.3605 17.3348 50.3605C15.191 50.3605 13.4531 52.0984 13.4531 54.2422C13.4531 56.386 15.191 58.1239 17.3348 58.1239Z" fill="#9A82DB"/>
<path d="M3.97576 60.2269C3.97576 57.531 7.76484 55.252 12.2395 55.252C13.6106 55.252 14.9076 55.4651 16.0563 55.8356C17.1217 56.1784 18.2612 55.6411 18.604 54.5757L18.6133 54.5386C18.9468 53.501 18.3724 52.3986 17.3348 52.0558C15.7877 51.5463 14.0645 51.2684 12.2395 51.2684C5.37466 51.2684 -0.100507 55.1964 0.00139977 60.2176C0.112571 65.2574 3.02154 68.0459 6.58828 69.6301V64.3402C4.04061 62.8857 3.97576 61.1626 3.97576 60.2269Z" fill="#CCC2DC"/>
<path d="M4.11473 59.2171C3.61446 59.634 2.51202 62.7004 3.09567 65.0536C3.39212 66.2672 4.08694 68.2219 6.58829 69.6394V64.1364C3.6052 62.0612 4.05915 59.3931 4.11473 59.2171Z" fill="#B0A7C0"/>
<path d="M16.0563 73.1042L17.3348 69.3336C13.3512 67.8699 8.21876 68.6851 6.58826 69.908V74.1603C7.96863 73.5303 10.9517 72.3445 16.0563 73.1042Z" fill="#B69DF8"/>
<path d="M17.3348 73.2431C19.4786 73.2431 21.2165 71.5052 21.2165 69.3614C21.2165 67.2176 19.4786 65.4797 17.3348 65.4797C15.191 65.4797 13.4531 67.2176 13.4531 69.3614C13.4531 71.5052 15.191 73.2431 17.3348 73.2431Z" fill="#9A82DB"/>
<path d="M3.97576 75.0497C3.97576 72.3538 7.76484 70.0748 12.2395 70.0748C13.6106 70.0748 14.9076 70.2879 16.0563 70.6584C17.1217 71.0012 18.2612 70.4639 18.604 69.3985L18.6133 69.3614C18.9468 68.3238 18.3724 67.2214 17.3348 66.8786C15.7877 66.3691 14.0645 66.0912 12.2395 66.0912C5.37466 66.0912 -0.100507 70.0192 0.00139977 75.0404C0.112571 80.0802 3.02154 82.8687 6.58828 84.4529V79.163C4.04061 77.7178 3.97576 75.9854 3.97576 75.0497Z" fill="#CCC2DC"/>
<path d="M4.11473 74.0491C3.61446 74.466 2.51202 77.5325 3.09567 79.8856C3.39212 81.0992 4.08694 83.054 6.58829 84.4714V78.9685C3.6052 76.8933 4.06841 74.2252 4.11473 74.0491Z" fill="#B0A7C0"/>
<path d="M16.0563 87.9362L17.3348 84.1657C13.3512 82.7019 8.21876 83.5172 6.58826 84.7401V88.9924C7.96863 88.3624 10.9517 87.1766 16.0563 87.9362Z" fill="#B69DF8"/>
<path d="M17.3348 88.3531C19.4786 88.3531 21.2165 86.6152 21.2165 84.4714C21.2165 82.3276 19.4786 80.5897 17.3348 80.5897C15.191 80.5897 13.4531 82.3276 13.4531 84.4714C13.4531 86.6152 15.191 88.3531 17.3348 88.3531Z" fill="#9A82DB"/>
<path d="M12.1561 96.7095H11.6929C9.29344 96.7095 7.98719 95.7553 7.27384 94.5602C3.95724 92.8741 3.97577 90.521 3.97577 89.8817C3.97577 87.1858 7.76484 84.9068 12.2395 84.9068C13.6106 84.9068 14.9076 85.1199 16.0563 85.4905C17.1217 85.8333 18.2612 85.2959 18.604 84.2305L18.6133 84.1935C18.9468 83.1559 18.3724 82.0534 17.3348 81.7107C15.7877 81.2011 14.0645 80.9232 12.2395 80.9232C5.37467 80.9232 0.00140381 84.8513 0.00140381 89.8725C0.00140381 95.922 2.24335 98.9422 14.2776 100.925V98.9144C13.5828 98.201 12.8509 97.4321 12.1561 96.7095Z" fill="#CCC2DC"/>
<path d="M12.1561 96.7095H11.6929C9.29344 96.7095 7.98719 95.7553 7.27384 94.5602C3.95724 92.8741 3.97577 90.521 3.97577 89.8817C3.97577 87.1858 7.76484 84.9068 12.2395 84.9068C13.6106 84.9068 14.9076 85.1199 16.0563 85.4905C17.1217 85.8333 18.2612 85.2959 18.604 84.2305L18.6133 84.1935C18.9468 83.1559 18.3724 82.0534 17.3348 81.7107C15.7877 81.2011 14.0645 80.9232 12.2395 80.9232C5.37467 80.9232 0.00140381 84.8513 0.00140381 89.8725C0.00140381 95.922 2.22482 99.1645 14.2776 100.925V98.9144C13.5828 98.201 12.8509 97.4321 12.1561 96.7095Z" fill="#CCC2DC"/>
<path d="M12.156 96.7095H11.6928C9.29339 96.7095 7.98713 95.7553 7.27378 94.5602C3.95718 92.8741 3.97571 90.521 3.97571 89.8817C3.97571 89.5482 4.0313 89.2147 4.14247 88.8905C4.1332 88.8812 4.11467 88.8719 4.11467 88.8719C3.6144 89.2888 2.51196 92.3553 3.09561 94.7084C3.30869 95.5793 3.50323 97.2746 6.49559 99.0441C8.46887 99.776 11.0165 100.387 14.2776 100.925V98.9236C13.5827 98.201 12.8509 97.4321 12.156 96.7095Z" fill="#B0A7C0"/>
</svg>
